<svg width="233" height="63" viewBox="0 0 233 63" fill="none" xmlns="http://www.w3.org/2000/svg">
<path d="M58.3024 38.3957V15.2131H63.6675V34.0241H75.292V38.3957H58.3024Z" fill="#231F20"/>
<path d="M80.2767 38.3957V15.2131H85.6418V38.3957H80.2767Z" fill="#231F20"/>
<path d="M90.0838 38.3957L100.417 15.2131H105.715L116.081 38.3957H110.451L101.973 17.9288H104.093L95.5814 38.3957H90.0838ZM95.2502 33.428L96.6743 29.3545H108.597L110.054 33.428H95.2502Z" fill="#231F20"/>
<path d="M58.1404 60.1184V46.4083H59.3352L65.6027 57.1022H64.9759L71.1846 46.4083H72.3794V60.1184H70.9888V48.5823H71.3218L65.6027 58.3753H64.9172L59.1589 48.5823H59.531V60.1184H58.1404Z" fill="#1E1E1E"/>
<path d="M77.9433 52.5387H85.1901V53.7726H77.9433V52.5387ZM78.1 58.8649H86.3457V60.1184H76.6506V46.4083H86.0519V47.6618H78.1V58.8649Z" fill="#1E1E1E"/>
<path d="M89.5567 60.1184V46.4083H95.1387C96.6011 46.4083 97.8807 46.7021 98.9775 47.2897C100.087 47.8642 100.949 48.6672 101.563 49.6987C102.177 50.7302 102.483 51.9185 102.483 53.2634C102.483 54.6082 102.177 55.7965 101.563 56.828C100.949 57.8595 100.087 58.6691 98.9775 59.2566C97.8807 59.8312 96.6011 60.1184 95.1387 60.1184H89.5567ZM91.006 58.8649H95.0603C96.2746 58.8649 97.3258 58.6299 98.2136 58.1598C99.1146 57.6767 99.8132 57.0173 100.309 56.1817C100.806 55.3329 101.054 54.3602 101.054 53.2634C101.054 52.1535 100.806 51.1807 100.309 50.3451C99.8132 49.5094 99.1146 48.8565 98.2136 48.3865C97.3258 47.9033 96.2746 47.6618 95.0603 47.6618H91.006V58.8649Z" fill="#1E1E1E"/>
<path d="M105.542 60.1184V46.4083H106.991V60.1184H105.542Z" fill="#1E1E1E"/>
<path d="M117.211 60.2359C116.179 60.2359 115.226 60.0662 114.351 59.7267C113.476 59.3742 112.719 58.8845 112.079 58.2578C111.439 57.631 110.937 56.8933 110.571 56.0445C110.218 55.1958 110.042 54.2688 110.042 53.2634C110.042 52.2579 110.218 51.3309 110.571 50.4822C110.937 49.6334 111.439 48.8957 112.079 48.2689C112.732 47.6422 113.496 47.1591 114.371 46.8196C115.245 46.467 116.199 46.2908 117.23 46.2908C118.223 46.2908 119.156 46.4605 120.031 46.8C120.906 47.1264 121.644 47.6226 122.244 48.2885L121.324 49.2091C120.762 48.6346 120.142 48.2232 119.463 47.9752C118.784 47.714 118.053 47.5834 117.269 47.5834C116.447 47.5834 115.683 47.7271 114.978 48.0143C114.273 48.2885 113.659 48.6868 113.137 49.2091C112.614 49.7183 112.203 50.3189 111.903 51.011C111.616 51.69 111.472 52.4407 111.472 53.2634C111.472 54.086 111.616 54.8433 111.903 55.5353C112.203 56.2143 112.614 56.8149 113.137 57.3372C113.659 57.8465 114.273 58.2447 114.978 58.532C115.683 58.8062 116.447 58.9433 117.269 58.9433C118.053 58.9433 118.784 58.8127 119.463 58.5515C120.142 58.2904 120.762 57.8726 121.324 57.298L122.244 58.2186C121.644 58.8845 120.906 59.3872 120.031 59.7267C119.156 60.0662 118.216 60.2359 117.211 60.2359Z" fill="#1E1E1E"/>
<path d="M122.6 60.1184L128.868 46.4083H130.297L136.565 60.1184H135.037L129.279 47.2505H129.866L124.108 60.1184H122.6ZM125.068 56.4559L125.499 55.2807H133.47L133.901 56.4559H125.068Z" fill="#1E1E1E"/>
<path d="M138.637 60.1184V46.4083H140.086V58.8649H147.764V60.1184H138.637Z" fill="#1E1E1E"/>
<path d="M160.859 60.2359C159.827 60.2359 158.874 60.0662 157.999 59.7267C157.124 59.3742 156.367 58.8845 155.727 58.2578C155.088 57.631 154.585 56.8933 154.219 56.0445C153.867 55.1958 153.69 54.2688 153.69 53.2634C153.69 52.2579 153.867 51.3309 154.219 50.4822C154.585 49.6334 155.088 48.8957 155.727 48.2689C156.38 47.6422 157.144 47.1591 158.019 46.8196C158.894 46.467 159.847 46.2908 160.878 46.2908C161.871 46.2908 162.804 46.4605 163.679 46.8C164.554 47.1264 165.292 47.6226 165.892 48.2885L164.972 49.2091C164.41 48.6346 163.79 48.2232 163.111 47.9752C162.432 47.714 161.701 47.5834 160.918 47.5834C160.095 47.5834 159.331 47.7271 158.626 48.0143C157.921 48.2885 157.307 48.6868 156.785 49.2091C156.263 49.7183 155.851 50.3189 155.551 51.011C155.264 51.69 155.12 52.4407 155.12 53.2634C155.12 54.086 155.264 54.8433 155.551 55.5353C155.851 56.2143 156.263 56.8149 156.785 57.3372C157.307 57.8465 157.921 58.2447 158.626 58.532C159.331 58.8062 160.095 58.9433 160.918 58.9433C161.701 58.9433 162.432 58.8127 163.111 58.5515C163.79 58.2904 164.41 57.8726 164.972 57.298L165.892 58.2186C165.292 58.8845 164.554 59.3872 163.679 59.7267C162.804 60.0662 161.864 60.2359 160.859 60.2359Z" fill="#1E1E1E"/>
<path d="M170.079 52.5387H177.326V53.7726H170.079V52.5387ZM170.236 58.8649H178.481V60.1184H168.786V46.4083H178.187V47.6618H170.236V58.8649Z" fill="#1E1E1E"/>
<path d="M181.692 60.1184V46.4083H182.887L192.347 58.3165H191.72V46.4083H193.15V60.1184H191.955L182.515 48.2102H183.142V60.1184H181.692Z" fill="#1E1E1E"/>
<path d="M200.093 60.1184V47.6618H195.275V46.4083H206.36V47.6618H201.542V60.1184H200.093Z" fill="#1E1E1E"/>
<path d="M209.772 52.5387H217.019V53.7726H209.772V52.5387ZM209.929 58.8649H218.175V60.1184H208.48V46.4083H217.881V47.6618H209.929V58.8649Z" fill="#1E1E1E"/>
<path d="M221.386 60.1184V46.4083H226.517C227.679 46.4083 228.678 46.5976 229.514 46.9763C230.35 47.3419 230.989 47.8772 231.433 48.5823C231.89 49.2744 232.119 50.1166 232.119 51.1089C232.119 52.0751 231.89 52.9108 231.433 53.6159C230.989 54.3079 230.35 54.8433 229.514 55.2219C228.678 55.5875 227.679 55.7703 226.517 55.7703H222.189L222.835 55.1044V60.1184H221.386ZM230.748 60.1184L227.222 55.1436H228.789L232.334 60.1184H230.748ZM222.835 55.2219L222.189 54.5364H226.478C227.849 54.5364 228.887 54.2361 229.592 53.6355C230.31 53.0348 230.67 52.1927 230.67 51.1089C230.67 50.0121 230.31 49.1634 229.592 48.5627C228.887 47.9621 227.849 47.6618 226.478 47.6618H222.189L222.835 46.9763V55.2219Z" fill="#1E1E1E"/>
<g clip-path="url(#clip0_1_167)">
<path d="M11.8919 0.118525C11.8705 0.17431 11.8705 10.7246 11.8919 23.5621C11.942 49.0418 11.9134 47.4031 12.3425 49.2998C13.1791 52.9676 15.2672 56.0358 18.4779 58.302C21.0022 60.0872 24.263 61.161 26.8874 61.0704L27.4952 61.0494V37.6896C27.4952 12.8932 27.5024 13.6184 27.1663 11.9588C26.2152 7.3287 23.2976 3.78637 18.5566 1.50617C16.7474 0.634535 15.0169 0.181282 13.2292 0.097605C12.7787 0.0836588 12.2995 0.0487912 12.1708 0.034845C12.0064 0.0139258 11.9205 0.0418209 11.8919 0.118525Z" fill="#144D92"/>
<path d="M38.5148 0.15338C38.4933 0.244031 38.429 0.564793 38.3646 0.87161C37.7997 3.52836 36.1049 6.69414 33.6164 9.76231C32.5509 11.0732 32.0647 11.9658 31.7 13.2977C31.5283 13.9183 31.514 14.0996 31.5069 15.3059C31.5069 16.5192 31.5212 16.6866 31.6928 17.3072C32.458 20.0546 34.3458 21.9792 36.9702 22.6765C37.4994 22.8159 37.7353 22.8369 38.8294 22.8299C40.3168 22.8299 40.8102 22.7253 41.9544 22.1744C43.4775 21.4422 44.5502 20.3614 45.3082 18.7994C45.8588 17.6628 46.059 16.7075 46.059 15.285C46.059 12.8165 45.1151 9.90177 43.17 6.3176C41.8257 3.84912 39.5803 0.711229 38.7508 0.132462L38.5505 -0.0069997L38.5148 0.15338ZM41.4252 11.3382C41.6326 11.408 41.8614 11.5614 42.0473 11.7566L42.3405 12.0704L42.6409 11.7427C42.8053 11.5614 42.9698 11.3731 42.9984 11.3243C43.0771 11.1918 43.8637 11.1848 43.8136 11.3103C43.7993 11.3591 43.313 12.7817 42.7338 14.4761C41.6326 17.7047 41.5182 18.1998 41.84 18.1998C41.9186 18.1998 42.0473 18.1719 42.1188 18.13C42.219 18.0742 42.7553 17.4257 43.3059 16.6726C43.3345 16.6378 43.9066 16.9655 43.9066 17.0143C43.9066 17.0352 43.6849 17.3909 43.4132 17.8023C42.6123 18.9947 42.0402 19.4479 41.3465 19.4549C40.6744 19.4549 40.2739 19.0714 40.2096 18.3462L40.1666 17.9417L39.7304 18.4299C39.1226 19.0993 38.6221 19.3921 37.9856 19.441C37.1061 19.4967 36.5554 19.1969 36.1693 18.4299C35.9476 17.9836 35.9333 17.9139 35.9405 17.2584C35.9548 15.6685 36.7843 13.8764 38.1501 12.5097C39.2299 11.4289 40.4241 11.0035 41.4252 11.3382Z" fill="#00A87F"/>
<path d="M40.0737 12.0912C39.6589 12.2168 39.3586 12.4538 38.9581 12.9698C38.2573 13.8554 37.6066 15.4453 37.4779 16.5749C37.3921 17.2722 37.485 17.6976 37.7639 17.9486C37.9641 18.123 38.0356 18.1439 38.3431 18.116C39.1011 18.0393 39.852 17.3001 40.5528 15.9334C41.4037 14.2459 41.5897 12.5654 40.9604 12.1819C40.7101 12.0215 40.3954 11.9936 40.0737 12.0912Z" fill="#00A87F"/>
<path d="M44.7146 23.4993C43.3702 23.6667 42.6623 23.8131 41.7684 24.106C37.3063 25.5564 33.4019 29.7751 32.1075 34.5377C31.7929 35.7022 31.6785 36.4205 31.5998 37.6408C31.4926 39.398 31.4282 60.4219 31.5355 60.7984L31.6213 61.1052L32.4865 61.0634C34.8892 60.9588 37.3992 60.0314 39.5802 58.4345C42.6122 56.2171 44.8791 52.7026 45.6943 48.9511C46.0518 47.2985 46.0518 47.3613 46.0518 34.9561V23.3599L45.8945 23.3668C45.8015 23.3738 45.2724 23.4366 44.7146 23.4993Z" fill="#144D92"/>
</g>
<defs>
<clipPath id="clip0_1_167">
<rect width="57.9224" height="62.2" fill="white"/>
</clipPath>
</defs>
</svg>
